<svg width="12" height="13" viewBox="0 0 12 13" fill="none" xmlns="http://www.w3.org/2000/svg">
<path d="M5 8.5C5 7.67 5 7 6.5 7H8.5C10 7 10 6.5 10 5.5V4.5C10 3.5 10 3 8.5 3H8" stroke="#646D80" stroke-linecap="round" stroke-linejoin="round"/>
<path d="M6.0001 1.5H4.0001C3.6751 2.475 3.6751 3.525 4.0001 4.5H6.0001C6.3251 3.525 6.3251 2.475 6.0001 1.5Z" stroke="#646D80" stroke-linecap="round" stroke-linejoin="round"/>
<path d="M4 1.5H3.5C2.5 1.5 2 2 2 3C2 4 2.5 4.5 3.5 4.5H4C3.5 3.5 3.5 2.5 4 1.5Z" stroke="#646D80" stroke-linecap="round" stroke-linejoin="round"/>
<path d="M6.5 1.5H6C6.5 2.5 6.5 3.5 6 4.5H6.5C7.5 4.5 8 4 8 3C8 2 7.5 1.5 6.5 1.5Z" stroke="#646D80" stroke-linecap="round" stroke-linejoin="round"/>
<path d="M4.75 11.5H5.25C6 11.5 6 11 6 10.75V9.25C6 9 6 8.5 5.25 8.5H4.75C4 8.5 4 9 4 9.25V10.75C4 11 4 11.5 4.75 11.5Z" stroke="#646D80" stroke-linecap="round" stroke-linejoin="round"/>
</svg>
