<svg width="14" height="15" viewBox="0 0 14 15" fill="none" xmlns="http://www.w3.org/2000/svg">
<g id="iconamoon:mode-dark-light">
<path id="Vector" d="M6.99995 12.75C7.70179 12.7501 8.39651 12.6094 9.04304 12.3363C9.68957 12.0632 10.2748 11.6633 10.7641 11.1601C11.2534 10.6569 11.6368 10.0608 11.8917 9.40688C12.1466 8.75297 12.2679 8.05459 12.2482 7.35303C11.514 7.86407 10.6322 8.11986 9.73852 8.08109C8.8448 8.04232 7.98853 7.71113 7.30132 7.13842C6.61411 6.56572 6.13399 5.78318 5.93474 4.91109C5.73549 4.039 5.82814 3.1256 6.19845 2.31128C4.89075 2.5128 3.70736 3.20067 2.88505 4.23725C2.06275 5.27384 1.66217 6.58269 1.76346 7.90195C1.86476 9.2212 2.46045 10.4536 3.43137 11.3525C4.40228 12.2514 5.67681 12.7505 6.99995 12.75Z" stroke="#292D32" stroke-linecap="round" stroke-linejoin="round"/>
</g>
</svg>
