<svg width="14" height="15" viewBox="0 0 14 15" fill="none" xmlns="http://www.w3.org/2000/svg">
<g id="vuesax/outline/devices">
<g id="devices">
<path id="Vector" d="M9.92202 8.3633C9.33869 8.3633 8.86035 7.88496 8.86035 7.30163C8.86035 6.71829 9.33869 6.23999 9.92202 6.23999C10.5054 6.23999 10.9837 6.71829 10.9837 7.30163C10.9837 7.88496 10.5054 8.3633 9.92202 8.3633ZM9.92202 7.11499C9.81702 7.11499 9.73535 7.19663 9.73535 7.30163C9.73535 7.40663 9.81702 7.4883 9.92202 7.4883C10.027 7.4883 10.1087 7.40663 10.1087 7.30163C10.1087 7.19663 10.027 7.11499 9.92202 7.11499Z" fill="#292D32"/>
<path id="Vector_2" d="M7.01199 10.0959H3.50033C1.40033 10.0959 0.729492 9.42509 0.729492 7.32509V4.00008C0.729492 1.90008 1.40033 1.22925 3.50033 1.22925H9.33366C11.4337 1.22925 12.1045 1.90008 12.1045 4.00008V5.04423C12.1045 5.16674 12.052 5.28923 11.9587 5.3709C11.8653 5.45257 11.7428 5.49343 11.6145 5.47593C11.4862 5.45843 11.3345 5.45258 11.1712 5.45258H8.67449C7.66532 5.45258 7.44949 5.66843 7.44949 6.6776V9.65842C7.44949 9.89759 7.25115 10.0959 7.01199 10.0959ZM3.50033 2.10425C1.87283 2.10425 1.60449 2.37258 1.60449 4.00008V7.32509C1.60449 8.95259 1.87283 9.22092 3.50033 9.22092H6.57449V6.6776C6.57449 5.18426 7.18116 4.57758 8.67449 4.57758H11.1712C11.1887 4.57758 11.212 4.57758 11.2295 4.57758V4.00008C11.2295 2.37258 10.9612 2.10425 9.33366 2.10425H3.50033Z" fill="#292D32"/>
<path id="Vector_3" d="M5.25 12.604C5.01083 12.604 4.8125 12.4057 4.8125 12.1665V9.6582C4.8125 9.41904 5.01083 9.2207 5.25 9.2207C5.48917 9.2207 5.6875 9.41904 5.6875 9.6582V12.1665C5.6875 12.4057 5.48917 12.604 5.25 12.604Z" fill="#292D32"/>
<path id="Vector_4" d="M7.00033 7.87915H1.16699C0.927826 7.87915 0.729492 7.68082 0.729492 7.44165C0.729492 7.20248 0.927826 7.00415 1.16699 7.00415H7.00033C7.23949 7.00415 7.43783 7.20248 7.43783 7.44165C7.43783 7.68082 7.23949 7.87915 7.00033 7.87915Z" fill="#292D32"/>
<path id="Vector_5" d="M6.99986 12.6042H3.4707C3.23154 12.6042 3.0332 12.4059 3.0332 12.1667C3.0332 11.9276 3.23154 11.7292 3.4707 11.7292H6.99986C7.23903 11.7292 7.43736 11.9276 7.43736 12.1667C7.43736 12.4059 7.23903 12.6042 6.99986 12.6042Z" fill="#292D32"/>
<path id="Vector_6" d="M9.92202 8.3633C9.33869 8.3633 8.86035 7.88496 8.86035 7.30163C8.86035 6.71829 9.33869 6.23999 9.92202 6.23999C10.5054 6.23999 10.9837 6.71829 10.9837 7.30163C10.9837 7.88496 10.5054 8.3633 9.92202 8.3633ZM9.92202 7.11499C9.81702 7.11499 9.73535 7.19663 9.73535 7.30163C9.73535 7.40663 9.81702 7.4883 9.92202 7.4883C10.027 7.4883 10.1087 7.40663 10.1087 7.30163C10.1087 7.19663 10.027 7.11499 9.92202 7.11499Z" fill="#292D32"/>
<path id="Vector_7" d="M11.6667 5.04405C11.5209 5.02655 11.3517 5.01489 11.1709 5.01489H8.67422C7.42589 5.01489 7.01172 5.42908 7.01172 6.67741V11.6707C7.01172 12.9191 7.42589 13.3332 8.67422 13.3332H11.1709C12.4192 13.3332 12.8334 12.9191 12.8334 11.6707V6.67741C12.8334 5.60991 12.5301 5.15489 11.6667 5.04405ZM9.92256 6.67741C10.2667 6.67741 10.5467 6.95738 10.5467 7.30155C10.5467 7.64572 10.2667 7.92572 9.92256 7.92572C9.5784 7.92572 9.29839 7.64572 9.29839 7.30155C9.29839 6.95738 9.5784 6.67741 9.92256 6.67741ZM9.92256 11.6707C9.23423 11.6707 8.67422 11.1107 8.67422 10.4224C8.67422 10.1366 8.7734 9.86824 8.93673 9.65824C9.16423 9.36657 9.52006 9.17406 9.92256 9.17406C10.2376 9.17406 10.5234 9.29074 10.7392 9.47741C11.0017 9.71074 11.1709 10.0491 11.1709 10.4224C11.1709 11.1107 10.6109 11.6707 9.92256 11.6707Z" stroke="#292D32" stroke-miterlimit="10" stroke-linecap="round" stroke-linejoin="round"/>
<path id="Vector_8" d="M9.92217 12.1083C8.99467 12.1083 8.23633 11.3499 8.23633 10.4224C8.23633 10.0491 8.36467 9.68157 8.59217 9.3899C8.913 8.97574 9.403 8.73657 9.92217 8.73657C10.3247 8.73657 10.7213 8.88241 11.0247 9.14491C11.398 9.47741 11.608 9.93825 11.608 10.4224C11.608 11.3499 10.8497 12.1083 9.92217 12.1083ZM9.92217 9.61157C9.67134 9.61157 9.438 9.72823 9.2805 9.92656C9.16967 10.0666 9.11133 10.2416 9.11133 10.4224C9.11133 10.8716 9.473 11.2333 9.92217 11.2333C10.3713 11.2333 10.733 10.8716 10.733 10.4224C10.733 10.1891 10.628 9.96742 10.4472 9.80408C10.3072 9.68158 10.1147 9.61157 9.92217 9.61157Z" fill="#292D32"/>
<path id="Vector_9" d="M9.92202 8.3633C9.33869 8.3633 8.86035 7.88496 8.86035 7.30163C8.86035 6.71829 9.33869 6.23999 9.92202 6.23999C10.5054 6.23999 10.9837 6.71829 10.9837 7.30163C10.9837 7.88496 10.5054 8.3633 9.92202 8.3633ZM9.92202 7.11499C9.81702 7.11499 9.73535 7.19663 9.73535 7.30163C9.73535 7.40663 9.81702 7.4883 9.92202 7.4883C10.027 7.4883 10.1087 7.40663 10.1087 7.30163C10.1087 7.19663 10.027 7.11499 9.92202 7.11499Z" fill="#292D32"/>
</g>
</g>
</svg>
