<svg width="16" height="17" viewBox="0 0 16 17" fill="none" xmlns="http://www.w3.org/2000/svg">
<g id="icon-park-outline:find">
<g id="Group">
<path id="Vector" d="M1.33301 2.83301H14.6663M1.33301 8.16634H4.99967M1.33301 13.4997H4.99967" stroke="#292D32" stroke-linecap="round"/>
<path id="Vector_2" d="M10.4993 11.8327C11.2508 11.8327 11.9715 11.5342 12.5028 11.0028C13.0342 10.4715 13.3327 9.7508 13.3327 8.99935C13.3327 8.2479 13.0342 7.52723 12.5028 6.99588C11.9715 6.46453 11.2508 6.16602 10.4993 6.16602C9.7479 6.16602 9.02723 6.46453 8.49588 6.99588C7.96453 7.52723 7.66602 8.2479 7.66602 8.99935C7.66602 9.7508 7.96453 10.4715 8.49588 11.0028C9.02723 11.5342 9.7479 11.8327 10.4993 11.8327Z" stroke="#292D32"/>
<path id="Vector_3" d="M12.333 11.166L14.6663 13.516" stroke="#292D32" stroke-linecap="round"/>
</g>
</g>
</svg>
