<svg width="16" height="17" viewBox="0 0 16 17" fill="none" xmlns="http://www.w3.org/2000/svg">
<g id="icon-park-outline:link">
<path id="Vector" d="M8.23542 3.68879L3.28575 8.63879C2.72324 9.20139 2.40723 9.96439 2.40723 10.76C2.40723 11.5555 2.72324 12.3185 3.28575 12.8811C3.56433 13.1597 3.89505 13.3807 4.25903 13.5315C4.62301 13.6822 5.01312 13.7598 5.40709 13.7598C5.80106 13.7598 6.19117 13.6822 6.55515 13.5315C6.91912 13.3807 7.24984 13.1597 7.52842 12.8811L13.4211 6.98879C13.6068 6.80307 13.7542 6.58258 13.8547 6.3399C13.9553 6.09723 14.007 5.83713 14.007 5.57446C14.007 5.31179 13.9553 5.05169 13.8547 4.80901C13.7542 4.56634 13.6068 4.34585 13.4211 4.16013C13.2354 3.97437 13.0149 3.82702 12.7722 3.72649C12.5295 3.62596 12.2694 3.57422 12.0068 3.57422C11.7441 3.57422 11.484 3.62596 11.2413 3.72649C10.9986 3.82702 10.7781 3.97437 10.5924 4.16013L4.70009 10.0528C4.60721 10.1457 4.53354 10.2559 4.48327 10.3772C4.433 10.4986 4.40713 10.6286 4.40713 10.76C4.40713 10.8913 4.433 11.0213 4.48327 11.1427C4.53354 11.264 4.60721 11.3743 4.70009 11.4671C4.88761 11.6546 5.14192 11.7599 5.40709 11.7599C5.67225 11.7599 5.92656 11.6546 6.11409 11.4671L11.0641 6.51713" stroke="#292D32" stroke-linecap="round" stroke-linejoin="round"/>
</g>
</svg>
