<svg width="92" height="32" viewBox="0 0 92 32" fill="none" xmlns="http://www.w3.org/2000/svg">
<rect width="32" height="32" rx="8" fill="url(#paint0_linear_65_934)"/>
<circle cx="16" cy="16" r="6.58301" stroke="white" stroke-width="2.83399" stroke-linecap="round" stroke-dasharray="5.67 5.67"/>
<path d="M49.17 21H47.308L43.962 17.262H42.604V21H41.106V11.62H45.516C47.448 11.62 48.736 12.754 48.736 14.448C48.736 16.058 47.56 17.15 45.782 17.248L49.17 21ZM42.604 15.904H45.516C46.552 15.904 47.238 15.316 47.238 14.448C47.238 13.566 46.552 12.978 45.516 12.978H42.604V15.904ZM53.4295 13.902C55.4735 13.902 57.1395 15.372 57.1395 17.528C57.1395 19.684 55.4735 21.168 53.4295 21.168C51.3715 21.168 49.6915 19.684 49.6915 17.528C49.6915 15.372 51.3715 13.902 53.4295 13.902ZM53.4295 19.908C54.6195 19.908 55.7255 18.97 55.7255 17.528C55.7255 16.086 54.6195 15.148 53.4295 15.148C52.2115 15.148 51.1195 16.086 51.1195 17.528C51.1195 18.97 52.2115 19.908 53.4295 19.908ZM65.5601 14.056V21H64.1041V20.202C63.5021 20.832 62.6341 21.196 61.5841 21.196C59.7641 21.196 58.1401 19.726 58.1401 17.528C58.1401 15.344 59.7641 13.86 61.5841 13.86C62.6341 13.86 63.5021 14.224 64.1041 14.854V14.056H65.5601ZM61.8221 19.908C62.9701 19.908 64.1041 18.998 64.1041 17.528C64.1041 16.072 62.9701 15.148 61.8221 15.148C60.5481 15.148 59.5541 16.072 59.5541 17.528C59.5541 18.998 60.5481 19.908 61.8221 19.908ZM76.3482 13.86C77.7902 13.86 78.9802 14.938 78.9802 16.576V21H77.5382V16.87C77.5382 15.848 76.8662 15.204 75.9702 15.204C74.8362 15.204 74.0942 16.002 74.0942 17.556V21H72.6382V16.87C72.6382 15.848 71.9662 15.204 71.0702 15.204C69.9502 15.204 69.2222 16.002 69.2222 17.556V21H67.7662V14.056H69.2222V14.84C69.7262 14.224 70.4542 13.86 71.4482 13.86C72.4422 13.86 73.3102 14.322 73.7582 15.134C74.3182 14.35 75.2002 13.86 76.3482 13.86ZM81.8815 11.06C82.4135 11.06 82.8055 11.48 82.8055 11.97C82.8055 12.488 82.4135 12.866 81.8815 12.866C81.3355 12.866 80.9435 12.488 80.9435 11.97C80.9435 11.48 81.3355 11.06 81.8815 11.06ZM82.6095 21H81.1535V14.056H82.6095V21ZM91.3924 17.374V17.878H85.7644C85.9044 19.166 86.8424 19.936 87.8644 19.936C88.6344 19.936 89.4184 19.712 89.9084 18.732L91.2104 19.012C90.6364 20.468 89.4044 21.196 87.8644 21.196C85.9744 21.196 84.3224 19.74 84.3224 17.542C84.3224 15.33 85.9604 13.86 87.9204 13.86C89.7824 13.86 91.3224 15.288 91.3924 17.374ZM87.9204 15.148C87.0104 15.148 86.0304 15.722 85.8064 16.842H89.8944C89.6704 15.708 88.8724 15.148 87.9204 15.148Z" fill="#646D80"/>
<defs>
<linearGradient id="paint0_linear_65_934" x1="16" y1="0" x2="16" y2="32" gradientUnits="userSpaceOnUse">
<stop stop-color="#292D32"/>
<stop offset="1" stop-color="#646D80"/>
</linearGradient>
</defs>
</svg>
