<svg width="116" height="32" viewBox="0 0 116 32" fill="none" xmlns="http://www.w3.org/2000/svg">
<rect width="32" height="32" rx="8" fill="url(#paint0_linear_666_2095)"/>
<circle cx="16" cy="16" r="6.58301" stroke="white" stroke-width="2.83399" stroke-linecap="round" stroke-dasharray="5.67 5.67"/>
<path d="M41.041 24V8.49902H47.2607C48.3708 8.49902 49.3232 8.69596 50.1182 9.08984C50.9131 9.48372 51.5218 10.0423 51.9443 10.7656C52.374 11.4818 52.5889 12.334 52.5889 13.3223V13.3438C52.5889 14.375 52.3275 15.2881 51.8047 16.083C51.2891 16.8708 50.5765 17.4294 49.667 17.7588L53.0508 24H49.8926L46.8525 18.1777C46.8311 18.1777 46.806 18.1777 46.7773 18.1777C46.7559 18.1777 46.7308 18.1777 46.7021 18.1777H43.8125V24H41.041ZM43.8125 16.0186H46.9814C47.8551 16.0186 48.5355 15.7894 49.0225 15.3311C49.5094 14.8656 49.7529 14.2174 49.7529 13.3867V13.3652C49.7529 12.556 49.4987 11.915 48.9902 11.4424C48.4889 10.9697 47.7979 10.7334 46.917 10.7334H43.8125V16.0186ZM59.9365 24.2363C58.7979 24.2363 57.8096 23.9964 56.9717 23.5166C56.1338 23.0296 55.4893 22.3385 55.0381 21.4434C54.5869 20.541 54.3613 19.4704 54.3613 18.2314V18.21C54.3613 16.971 54.5905 15.904 55.0488 15.0088C55.5072 14.1136 56.1517 13.4261 56.9824 12.9463C57.8203 12.4593 58.805 12.2158 59.9365 12.2158C61.068 12.2158 62.0492 12.4557 62.8799 12.9355C63.7178 13.4154 64.3659 14.1029 64.8242 14.998C65.2826 15.8932 65.5117 16.9639 65.5117 18.21V18.2314C65.5117 19.4775 65.2826 20.5482 64.8242 21.4434C64.373 22.3385 63.7321 23.0296 62.9014 23.5166C62.0706 23.9964 61.0824 24.2363 59.9365 24.2363ZM59.9365 22.0664C60.5309 22.0664 61.0394 21.916 61.4619 21.6152C61.8844 21.3145 62.2103 20.8776 62.4395 20.3047C62.6686 19.7318 62.7832 19.0407 62.7832 18.2314V18.21C62.7832 17.4007 62.6686 16.7132 62.4395 16.1475C62.2103 15.5745 61.8809 15.1377 61.4512 14.8369C61.0286 14.529 60.5238 14.375 59.9365 14.375C59.3493 14.375 58.8408 14.529 58.4111 14.8369C57.9886 15.1377 57.6628 15.5745 57.4336 16.1475C57.2044 16.7132 57.0898 17.4007 57.0898 18.21V18.2314C57.0898 19.0407 57.2044 19.7318 57.4336 20.3047C57.6628 20.8776 57.9886 21.3145 58.4111 21.6152C58.8408 21.916 59.3493 22.0664 59.9365 22.0664ZM70.9795 24.1934C70.2275 24.1934 69.5615 24.0501 68.9814 23.7637C68.4085 23.4701 67.9574 23.0618 67.6279 22.5391C67.3057 22.0163 67.1445 21.4111 67.1445 20.7236V20.7021C67.1445 20.0146 67.3128 19.4238 67.6494 18.9297C67.9932 18.4355 68.4909 18.0488 69.1426 17.7695C69.8014 17.4831 70.5964 17.3112 71.5273 17.2539L75.8779 16.9854V18.7471L71.9033 19.0049C71.2015 19.0479 70.6751 19.2054 70.3242 19.4775C69.9733 19.7497 69.7979 20.1185 69.7979 20.584V20.6055C69.7979 21.0853 69.9805 21.4648 70.3457 21.7441C70.7109 22.0163 71.1872 22.1523 71.7744 22.1523C72.3044 22.1523 72.7734 22.0485 73.1816 21.8408C73.597 21.626 73.9229 21.3359 74.1592 20.9707C74.4027 20.6055 74.5244 20.1937 74.5244 19.7354V16.1797C74.5244 15.5996 74.3418 15.1484 73.9766 14.8262C73.6113 14.5039 73.0778 14.3428 72.376 14.3428C71.7529 14.3428 71.248 14.4645 70.8613 14.708C70.4818 14.9443 70.2347 15.2666 70.1201 15.6748L70.1094 15.7393H67.6064L67.6172 15.6318C67.6888 14.9658 67.9287 14.375 68.3369 13.8594C68.7523 13.3438 69.3109 12.9427 70.0127 12.6562C70.7145 12.3626 71.5381 12.2158 72.4834 12.2158C73.4645 12.2158 74.306 12.3734 75.0078 12.6885C75.7096 12.9964 76.2467 13.4404 76.6191 14.0205C76.9987 14.6006 77.1885 15.2881 77.1885 16.083V24H74.5244V22.3135H74.4062C74.1914 22.7002 73.9121 23.0368 73.5684 23.3232C73.2246 23.6025 72.8343 23.8174 72.3975 23.9678C71.9606 24.1182 71.488 24.1934 70.9795 24.1934ZM79.8203 24V12.4414H82.4951V14.2676H82.6133C82.8568 13.6374 83.2578 13.1396 83.8164 12.7744C84.3822 12.402 85.0446 12.2158 85.8037 12.2158C86.3337 12.2158 86.8099 12.3053 87.2324 12.4844C87.6621 12.6562 88.0273 12.9069 88.3281 13.2363C88.6289 13.5658 88.8545 13.9632 89.0049 14.4287H89.123C89.3092 13.9775 89.5778 13.5872 89.9287 13.2578C90.2796 12.9284 90.6878 12.6742 91.1533 12.4951C91.626 12.3089 92.1344 12.2158 92.6787 12.2158C93.445 12.2158 94.1074 12.3734 94.666 12.6885C95.2246 13.0036 95.6579 13.4476 95.9658 14.0205C96.2738 14.5934 96.4277 15.2738 96.4277 16.0615V24H93.7529V16.7168C93.7529 16.2227 93.6742 15.8109 93.5166 15.4814C93.359 15.1449 93.1263 14.8942 92.8184 14.7295C92.5104 14.5576 92.1273 14.4717 91.6689 14.4717C91.2249 14.4717 90.8346 14.5755 90.498 14.7832C90.1615 14.9837 89.9001 15.2594 89.7139 15.6104C89.5277 15.9613 89.4346 16.3659 89.4346 16.8242V24H86.8027V16.5557C86.8027 16.1188 86.7204 15.7464 86.5557 15.4385C86.391 15.1234 86.1546 14.8835 85.8467 14.7188C85.5387 14.554 85.1699 14.4717 84.7402 14.4717C84.3034 14.4717 83.9167 14.5791 83.5801 14.7939C83.2435 15.0088 82.9785 15.3024 82.7852 15.6748C82.5918 16.0472 82.4951 16.4697 82.4951 16.9424V24H79.8203ZM99.1133 24V12.4414H101.777V24H99.1133ZM100.445 10.6582C100.023 10.6582 99.6611 10.5114 99.3604 10.2178C99.0596 9.91699 98.9092 9.55892 98.9092 9.14355C98.9092 8.72103 99.0596 8.36296 99.3604 8.06934C99.6611 7.76855 100.023 7.61816 100.445 7.61816C100.875 7.61816 101.24 7.76855 101.541 8.06934C101.842 8.36296 101.992 8.72103 101.992 9.14355C101.992 9.55892 101.842 9.91699 101.541 10.2178C101.24 10.5114 100.875 10.6582 100.445 10.6582ZM109.544 24.2363C108.398 24.2363 107.41 23.9928 106.579 23.5059C105.756 23.0189 105.122 22.3278 104.678 21.4326C104.234 20.5374 104.012 19.4775 104.012 18.2529V18.2422C104.012 17.0247 104.234 15.9648 104.678 15.0625C105.122 14.1602 105.748 13.4619 106.558 12.9678C107.367 12.4665 108.323 12.2158 109.426 12.2158C110.521 12.2158 111.467 12.4593 112.262 12.9463C113.064 13.4261 113.68 14.1029 114.109 14.9766C114.539 15.8431 114.754 16.8564 114.754 18.0166V18.8867H105.344V17.0928H113.465L112.187 18.7686V17.7266C112.187 16.9603 112.068 16.3265 111.832 15.8252C111.603 15.3167 111.284 14.9372 110.876 14.6865C110.468 14.4359 109.992 14.3105 109.447 14.3105C108.91 14.3105 108.434 14.443 108.019 14.708C107.603 14.9658 107.274 15.349 107.03 15.8574C106.787 16.3659 106.665 16.9889 106.665 17.7266V18.7793C106.665 19.4811 106.783 20.0827 107.02 20.584C107.263 21.0853 107.603 21.472 108.04 21.7441C108.477 22.0091 109 22.1416 109.608 22.1416C110.067 22.1416 110.464 22.0736 110.801 21.9375C111.145 21.7943 111.424 21.6188 111.639 21.4111C111.861 21.1963 112.015 20.9814 112.101 20.7666L112.122 20.6914L114.646 20.6807L114.614 20.7988C114.521 21.207 114.349 21.6152 114.099 22.0234C113.848 22.4245 113.511 22.7933 113.089 23.1299C112.674 23.4665 112.169 23.735 111.574 23.9355C110.987 24.1361 110.31 24.2363 109.544 24.2363Z" fill="#292D32"/>
<defs>
<linearGradient id="paint0_linear_666_2095" x1="16" y1="0" x2="16" y2="32" gradientUnits="userSpaceOnUse">
<stop stop-color="#292D32"/>
<stop offset="1" stop-color="#646D80"/>
</linearGradient>
</defs>
</svg>
