<svg width="20" height="20" viewBox="0 0 20 20" fill="none" xmlns="http://www.w3.org/2000/svg">
<g id="vuesax/linear/message-add">
<g id="message-add">
<path id="Vector" d="M18.3332 6.19157V11.1916C18.3332 12.4416 17.9165 13.4832 17.1832 14.2166C16.4582 14.9416 15.4165 15.3582 14.1665 15.3582V17.1332C14.1665 17.7999 13.4248 18.1999 12.8748 17.8333L9.1665 15.3582H7.39984C7.46651 15.1082 7.49984 14.8499 7.49984 14.5832C7.49984 13.7332 7.17484 12.9499 6.64151 12.3583C6.04151 11.6749 5.14984 11.2499 4.1665 11.2499C3.23317 11.2499 2.38317 11.6333 1.77484 12.2583C1.69984 11.9249 1.6665 11.5666 1.6665 11.1916V6.19157C1.6665 3.69157 3.33317 2.0249 5.83317 2.0249H14.1665C16.6665 2.0249 18.3332 3.69157 18.3332 6.19157Z" stroke="#292D32" stroke-miterlimit="10" stroke-linecap="round" stroke-linejoin="round"/>
<path id="Vector_2" d="M7.50016 14.5833C7.50016 14.85 7.46683 15.1083 7.40017 15.3583C7.32517 15.6917 7.19184 16.0167 7.01684 16.3C6.44184 17.2667 5.3835 17.9167 4.16683 17.9167C3.3085 17.9167 2.53349 17.5916 1.95016 17.0583C1.70016 16.8416 1.48348 16.5833 1.31682 16.3C1.00848 15.8 0.833496 15.2083 0.833496 14.5833C0.833496 13.6833 1.19183 12.8584 1.77517 12.2584C2.3835 11.6334 3.2335 11.25 4.16683 11.25C5.15016 11.25 6.04183 11.675 6.64183 12.3583C7.17516 12.95 7.50016 13.7333 7.50016 14.5833Z" stroke="#292D32" stroke-miterlimit="10" stroke-linecap="round" stroke-linejoin="round"/>
<g id="Group">
<path id="Vector_3" d="M5.40812 14.5667H2.9248" stroke="#292D32" stroke-miterlimit="10" stroke-linecap="round" stroke-linejoin="round"/>
<path id="Vector_4" d="M4.1665 13.3501V15.8418" stroke="#292D32" stroke-miterlimit="10" stroke-linecap="round" stroke-linejoin="round"/>
</g>
<path id="Vector_5" d="M7.0835 8.75H12.9168" stroke="#292D32" stroke-miterlimit="10" stroke-linecap="round" stroke-linejoin="round"/>
</g>
</g>
</svg>
