<svg width="48" height="48" viewBox="0 0 48 48" fill="none" xmlns="http://www.w3.org/2000/svg">
<rect width="48" height="48" rx="24" fill="url(#paint0_linear_681_2156)"/>
<path d="M18.9738 24.8797L20.6188 25.428C21.7061 25.7897 22.2486 25.9717 22.6383 26.3614C23.028 26.751 23.21 27.2947 23.5716 28.3797L24.12 30.0247C25.0346 32.771 25.492 34.143 26.3331 34.143C27.1731 34.143 27.6316 32.771 28.5463 30.0247L31.8573 20.094C32.5013 18.162 32.8233 17.1961 32.3135 16.6862C31.8036 16.1764 30.8376 16.4984 28.9068 17.1412L18.9726 20.4545C16.2298 21.368 14.8555 21.8254 14.8555 22.6665C14.8555 23.5077 16.2286 23.965 18.9738 24.8797Z" fill="white" fill-opacity="0.64"/>
<path d="M18.9738 24.8797L20.6188 25.428C21.7061 25.7897 22.2486 25.9717 22.6383 26.3614C23.028 26.751 23.21 27.2947 23.5716 28.3797L24.12 30.0247C25.0346 32.771 25.492 34.143 26.3331 34.143C27.1731 34.143 27.6316 32.771 28.5463 30.0247L31.8573 20.094C32.5013 18.162 32.8233 17.1961 32.3135 16.6862C31.8036 16.1764 30.8376 16.4984 28.9068 17.1412L18.9726 20.4545C16.2298 21.368 14.8555 21.8254 14.8555 22.6665C14.8555 23.5077 16.2286 23.965 18.9738 24.8797Z" fill="white" fill-opacity="0.64"/>
<path d="M21.114 27.1485L18.7084 26.347C18.54 26.2909 18.3611 26.2739 18.1852 26.2973C18.0093 26.3208 17.8411 26.3841 17.6934 26.4823L16.4217 27.3293C16.2712 27.4296 16.153 27.5715 16.0816 27.7377C16.0102 27.9039 15.9887 28.0873 16.0196 28.2655C16.0505 28.4437 16.1325 28.6091 16.2557 28.7416C16.3788 28.8741 16.5379 28.9679 16.7134 29.0117L18.9942 29.581C19.0968 29.6066 19.1906 29.6597 19.2654 29.7345C19.3402 29.8093 19.3932 29.903 19.4189 30.0057L19.9882 32.2865C20.032 32.462 20.1258 32.621 20.2583 32.7442C20.3907 32.8674 20.5561 32.9494 20.7344 32.9803C20.9126 33.0112 21.096 32.9896 21.2622 32.9182C21.4284 32.8468 21.5702 32.7287 21.6705 32.5782L22.5175 31.3065C22.6158 31.1587 22.6791 30.9905 22.7025 30.8146C22.726 30.6387 22.709 30.4598 22.6529 30.2915L21.8514 27.8858C21.7941 27.7141 21.6976 27.5582 21.5697 27.4302C21.4417 27.3022 21.2857 27.2058 21.114 27.1485Z" fill="white"/>
<defs>
<linearGradient id="paint0_linear_681_2156" x1="24" y1="0" x2="24" y2="48" gradientUnits="userSpaceOnUse">
<stop stop-color="#292D32"/>
<stop offset="1" stop-color="#646D80"/>
</linearGradient>
</defs>
</svg>
