<svg width="13" height="13" viewBox="0 0 13 13" fill="none" xmlns="http://www.w3.org/2000/svg">
<g id="United Kingdom (GB)">
<g clip-path="url(#clip0_243_2916)">
<path id="Vector" d="M0.5 0.5H12.5V12.5H0.5V0.5Z" fill="#012169"/>
<path id="Vector_2" d="M12.5 0.5V2L8.04688 6.5L12.5 10.8828V12.5H10.9297L6.45312 8.09375L2.09375 12.5H0.5V10.9062L4.85938 6.52344L0.5 2.23438V0.5H1.95312L6.45312 4.90625L10.8125 0.5H12.5Z" fill="white"/>
<path id="Vector_3" d="M4.8125 8.09375L5.07031 8.89062L1.48438 12.5H0.5V12.4297L4.8125 8.09375ZM7.71875 7.8125L8.98438 8L12.5 11.4453V12.5L7.71875 7.8125ZM12.5 0.5L8 5.09375L7.90625 4.0625L11.4219 0.5H12.5ZM0.5 0.523438L5.02344 4.95312L3.64062 4.76562L0.5 1.64844V0.523438Z" fill="#C8102E"/>
<path id="Vector_4" d="M4.625 0.5V12.5H8.375V0.5H4.625ZM0.5 4.625V8.375H12.5V4.625H0.5Z" fill="white"/>
<path id="Vector_5" d="M0.5 5.375V7.625H12.5V5.375H0.5ZM5.375 0.5V12.5H7.625V0.5H5.375Z" fill="#C8102E"/>
</g>
</g>
<defs>
<clipPath id="clip0_243_2916">
<rect x="0.5" y="0.5" width="12" height="12" rx="4" fill="white"/>
</clipPath>
</defs>
</svg>
